<svg width="27" height="27" viewBox="0 0 27 27" fill="none" xmlns="http://www.w3.org/2000/svg">
<path d="M14.4395 12.5537V0.941904C14.4395 0.692096 14.3403 0.452519 14.1636 0.275878C13.9869 0.0992362 13.7473 0 13.4975 0C13.2476 0 13.008 0.0992362 12.8314 0.275878C12.6547 0.452519 12.5555 0.692096 12.5555 0.941904V12.5537H0.942036C0.692192 12.5537 0.452582 12.6529 0.275916 12.8296C0.0992501 13.0062 0 13.2458 0 13.4956C0 13.7454 0.0992501 13.985 0.275916 14.1616C0.452582 14.3383 0.692192 14.4375 0.942036 14.4375H12.5555V26.0581C12.5555 26.3079 12.6547 26.5475 12.8314 26.7241C13.008 26.9008 13.2476 27 13.4975 27C13.7473 27 13.9869 26.9008 14.1636 26.7241C14.3403 26.5475 14.4395 26.3079 14.4395 26.0581V14.4375L26.058 14.4413C26.3078 14.4413 26.5474 14.342 26.7241 14.1654C26.9008 13.9888 27 13.7492 27 13.4994C27 13.2496 26.9008 13.01 26.7241 12.8333C26.5474 12.6567 26.3078 12.5575 26.058 12.5575L14.4395 12.5537Z" fill="#606060"/>
</svg>
