<svg width="29" height="29" viewBox="0 0 29 29" fill="none" xmlns="http://www.w3.org/2000/svg">
<path d="M11.6725 16.7692L10.3856 18.0561C9.5302 17.0691 9.0603 15.8061 9.06251 14.5V7.25C9.06251 5.80789 9.63539 4.42484 10.6551 3.40511C11.6748 2.38538 13.0579 1.8125 14.5 1.8125C15.9421 1.8125 17.3252 2.38538 18.3449 3.40511C19.3646 4.42484 19.9375 5.80789 19.9375 7.25V8.50606L18.125 10.3186V7.25C18.125 6.28859 17.7431 5.36656 17.0633 4.68674C16.3835 4.00692 15.4614 3.625 14.5 3.625C13.5386 3.625 12.6166 4.00692 11.9367 4.68674C11.2569 5.36656 10.875 6.28859 10.875 7.25V14.5C10.875 15.3591 11.1741 16.1494 11.6725 16.7692ZM13.1443 17.8622C13.6945 18.0841 14.2908 18.1675 14.8808 18.1052C15.4708 18.0429 16.0364 17.8367 16.5282 17.5048C17.0199 17.1728 17.4226 16.7253 17.7011 16.2014C17.9795 15.6775 18.1251 15.0933 18.125 14.5V12.8814L19.9375 11.0689V14.5C19.9378 15.4538 19.6873 16.3908 19.211 17.2171C18.7348 18.0435 18.0495 18.73 17.2241 19.2078C16.3987 19.6856 15.4621 19.9379 14.5083 19.9394C13.5546 19.9408 12.6172 19.6914 11.7903 19.2161L13.1443 17.8622ZM8.91751 22.0889L10.2243 20.7839C11.2338 21.4175 12.402 21.7524 13.5938 21.75H15.4063C17.0887 21.75 18.7023 21.0816 19.892 19.892C21.0817 18.7023 21.75 17.0887 21.75 15.4062V14.5C21.75 14.2596 21.8455 14.0291 22.0154 13.8592C22.1854 13.6892 22.4159 13.5938 22.6563 13.5938C22.8966 13.5938 23.1271 13.6892 23.2971 13.8592C23.467 14.0291 23.5625 14.2596 23.5625 14.5V15.4062C23.5625 17.5694 22.7032 19.644 21.1736 21.1736C19.644 22.7032 17.5694 23.5625 15.4063 23.5625V25.375H17.2188C17.4591 25.375 17.6896 25.4705 17.8596 25.6404C18.0295 25.8104 18.125 26.0409 18.125 26.2812C18.125 26.5216 18.0295 26.7521 17.8596 26.9221C17.6896 27.092 17.4591 27.1875 17.2188 27.1875H11.7813C11.5409 27.1875 11.3104 27.092 11.1404 26.9221C10.9705 26.7521 10.875 26.5216 10.875 26.2812C10.875 26.0409 10.9705 25.8104 11.1404 25.6404C11.3104 25.4705 11.5409 25.375 11.7813 25.375H13.5938V23.5625C11.8538 23.5625 10.2406 23.0188 8.91751 22.0889ZM7.55451 20.8891C6.18959 19.3895 5.4345 17.434 5.43751 15.4062V14.5C5.43751 14.2596 5.53299 14.0291 5.70294 13.8592C5.8729 13.6892 6.10341 13.5938 6.34376 13.5938C6.58411 13.5938 6.81462 13.6892 6.98457 13.8592C7.15453 14.0291 7.25001 14.2596 7.25001 14.5V15.4062C7.25001 17.0157 7.84995 18.4875 8.83776 19.6058L7.55451 20.8891Z" fill="white"/>
<path d="M4.26843 24.3292C4.09824 24.4951 3.86966 24.5876 3.63195 24.5866C3.39425 24.5856 3.16645 24.4912 2.99765 24.3239C2.82886 24.1565 2.73258 23.9295 2.72957 23.6918C2.72655 23.4541 2.81705 23.2248 2.98155 23.0532L22.9191 2.98699C23.0892 2.82104 23.3178 2.7286 23.5555 2.72959C23.7932 2.73059 24.021 2.82494 24.1898 2.9923C24.3586 3.15967 24.4549 3.38666 24.4579 3.62435C24.4609 3.86204 24.3704 4.0914 24.2059 4.26299L4.26843 24.3292Z" fill="white"/>
</svg>
