<svg width="29" height="29" viewBox="0 0 29 29" fill="none" xmlns="http://www.w3.org/2000/svg">
<path d="M8.28501 19C9.17085 18.9994 10.0347 18.7425 10.7577 18.2647C11.4807 17.7869 12.0273 17.1116 12.3222 16.3319C12.6172 15.5522 12.646 14.7063 12.4048 13.9106C12.1635 13.1149 11.664 12.4086 10.975 11.8889L17.0217 11.8889C16.2354 12.4821 15.6991 13.3156 15.5076 14.2423C15.316 15.1689 15.4817 16.1289 15.9751 16.9525C16.4686 17.7762 17.2582 18.4104 18.2042 18.7431C19.1502 19.0759 20.1918 19.0856 21.1449 18.7707C22.0979 18.4558 22.9009 17.8365 23.412 17.0223C23.9231 16.2081 24.1094 15.2514 23.9379 14.3213C23.7663 13.3913 23.2481 12.5478 22.4747 11.94C21.7013 11.3323 20.7227 10.9993 19.7117 11L8.28501 11C7.14856 11 6.05865 11.4214 5.25505 12.1716C4.45146 12.9217 4 13.9391 4 15C4 16.0609 4.45146 17.0783 5.25505 17.8284C6.05865 18.5786 7.14856 19 8.28501 19ZM23.0445 15C23.0445 15.6153 22.849 16.2168 22.4828 16.7284C22.1166 17.2401 21.5961 17.6388 20.9871 17.8743C20.3781 18.1098 19.708 18.1714 19.0615 18.0513C18.415 17.9313 17.8212 17.635 17.3551 17.1999C16.889 16.7648 16.5716 16.2104 16.443 15.6069C16.3144 15.0035 16.3804 14.3779 16.6326 13.8094C16.8849 13.2409 17.312 12.7551 17.8601 12.4132C18.4082 12.0714 19.0526 11.8889 19.7117 11.8889C20.5956 11.8889 21.4433 12.2167 22.0684 12.8001C22.6934 13.3836 23.0445 14.1749 23.0445 15ZM8.28501 11.8889C8.94418 11.8889 9.58854 12.0714 10.1366 12.4132C10.6847 12.7551 11.1119 13.2409 11.3641 13.8094C11.6164 14.3779 11.6824 15.0035 11.5538 15.6069C11.4252 16.2104 11.1077 16.7648 10.6416 17.1999C10.1756 17.635 9.5817 17.9313 8.93521 18.0513C8.28871 18.1714 7.6186 18.1098 7.00961 17.8743C6.40062 17.6388 5.88011 17.2401 5.5139 16.7284C5.14769 16.2168 4.95222 15.6153 4.95222 15C4.95222 14.1749 5.30336 13.3836 5.92838 12.8001C6.55339 12.2167 7.4011 11.8889 8.28501 11.8889Z" fill="white"/>
<rect x="0.5" y="0.5" width="28" height="28" rx="4.5" stroke="white"/>
</svg>
