<svg width="28" height="28" viewBox="0 0 28 28" fill="none" xmlns="http://www.w3.org/2000/svg">
<path d="M19.25 21V7H3.5V21H19.25ZM21 9.625L26.25 7V21L21 18.375V21.875C21 22.1071 20.9078 22.3296 20.7437 22.4937C20.5796 22.6578 20.3571 22.75 20.125 22.75H2.625C2.39294 22.75 2.17038 22.6578 2.00628 22.4937C1.84219 22.3296 1.75 22.1071 1.75 21.875V6.125C1.75 5.89294 1.84219 5.67038 2.00628 5.50628C2.17038 5.34219 2.39294 5.25 2.625 5.25H20.125C20.3571 5.25 20.5796 5.34219 20.7437 5.50628C20.9078 5.67038 21 5.89294 21 6.125V9.625ZM21 11.5815V16.4185L24.5 18.1685V9.8315L21 11.5815ZM5.25 8.75H10.5V10.5H5.25V8.75Z" fill="#606060"/>
</svg>
